# xmcd
#
# Track frame offsets:
#	150
#	14188
#	32835
#	47985
#	65006
#	78303
#	94666
#	117718
#	133635
#	147346
#	158672
#	177963
#	192268
#	207194
#	230938
#
# Disc length: 3342 seconds
#
# Revision: 1
# Processed by: cddbd v1.4PL0 Copyright (c) Steve Scherf et al.
# Submitted via: audiograbber 1.80
#
DISCID=e10d0c0f
DTITLE=Savannah - Side By Side
DYEAR=1900
DGENRE=
TTITLE0=Drivin' My Life Away
TTITLE1=Lovin Only Me
TTITLE2=Side By Side
TTITLE3=Walk Of Live
TTITLE4=In The Arms Of Love
TTITLE5=Poor Boy Blues
TTITLE6=Love Is All Around
TTITLE7=Mercury Blues
TTITLE8=Alle Dromen
TTITLE9=It's All Over Now
TTITLE10=Ticket To Heaven
TTITLE11=It's All Over Now
TTITLE12=Orange Glow
TTITLE13=Wonderful Tonight
TTITLE14=Six Days On The Road
EXTD=
EXTT0=
EXTT1=
EXTT2=
EXTT3=
EXTT4=
EXTT5=
EXTT6=
EXTT7=
EXTT8=
EXTT9=
EXTT10=
EXTT11=
EXTT12=
EXTT13=
EXTT14=
PLAYORDER=
